# xmcd
#
# Track frame offsets:
#	150
#	29100
#	45225
#	58278
#	73036
#	89898
#	107122
#	127012
#	141821
#	158466
#	175895
#	200178
#	216430
#	234916
#	249025
#
# Disc length: 3528 seconds
#
# Revision: 2
# Processed by: cddbd v1.5.2PL0 Copyright (c) Steve Scherf et al.
# Submitted via: audiograbber 1.83.01
#
DISCID=e00dc60f
DTITLE=Chartbuster - 80057
DYEAR=2005
DGENRE=Karaoke
TTITLE0=Elton John - Lucy In the sky With Diamonds
TTITLE1=Barry Manilow - Mandy
TTITLE2=The Carpenters - Please Mr. Postman
TTITLE3=Neil Sedaka - Laughter In The Rain
TTITLE4=Linda Ronstadt - Your No Good
TTITLE5=Oliva Newton-John - Have you Ever Been Mellow
TTITLE6=Doobie Brothers - Black Water
TTITLE7=Frankie Vall - My Eyes Adored You
TTITLE8=LaBelle - Lady Marmelade
TTITLE9=Minnie Riperton - Lovin' You
TTITLE10=Elton John - Philadelphia Freedom
TTITLE11=B. J. Thomas - Another Somebody Done Someone Wrong Song
TTITLE12=Tony Orlando and Dawn - He Dont Love You (Like I love You)
TTITLE13=Earth, Wind, and Fire - Shining Star
TTITLE14=John Denver - Thank God I'm A Country Boy
EXTD=
EXTT0=
EXTT1=
EXTT2=
EXTT3=
EXTT4=
EXTT5=
EXTT6=
EXTT7=
EXTT8=
EXTT9=
EXTT10=
EXTT11=
EXTT12=
EXTT13=
EXTT14=
PLAYORDER=
